<svg xmlns="http://www.w3.org/2000/svg" viewBox="0 0 900 560" role="img" aria-labelledby="title desc">
  <title id="title">Orbit geometry pattern</title>
  <desc id="desc">Overlapping circular linework expanding from multiple focal points.</desc>
  <rect width="900" height="560" fill="#f2f0e8"/>
  <g fill="none" stroke="#203746" stroke-linecap="round" stroke-linejoin="round">
    <g stroke-width="5.5">
      <circle cx="138" cy="86" r="22"/>
      <circle cx="138" cy="86" r="46"/>
      <circle cx="138" cy="86" r="82"/>
      <circle cx="138" cy="86" r="136"/>
      <circle cx="138" cy="86" r="238"/>
      <circle cx="704" cy="418" r="22"/>
      <circle cx="704" cy="418" r="48"/>
      <circle cx="704" cy="418" r="92"/>
      <circle cx="704" cy="418" r="160"/>
      <circle cx="704" cy="418" r="276"/>
      <circle cx="488" cy="180" r="288"/>
      <circle cx="514" cy="486" r="346"/>
    </g>
    <g stroke-width="4">
      <path d="M138 86 900 18"/>
      <path d="M138 86 548 560"/>
      <path d="M138 86 0 142"/>
      <path d="M704 418 900 332"/>
      <path d="M704 418 580 0"/>
      <path d="M704 418 298 560"/>
    </g>
  </g>
</svg>
